<svg width="116" height="125" viewBox="0 0 116 125" fill="none" xmlns="http://www.w3.org/2000/svg">
<g clip-path="url(#clip0_419_6)">
<path d="M73.6536 69.5613C78.101 67.4831 81.973 64.0579 84.6292 59.4571C91.5335 47.4985 87.4372 32.2108 75.4786 25.3065C63.52 18.4022 48.2323 22.4985 41.328 34.4571C38.6717 39.0579 37.6414 44.1237 38.0654 49.0144C38.1736 50.2722 38.3319 51.7168 38.5019 53.2583C38.9554 57.5119 39.4899 62.6017 39.394 67.2599C39.2977 71.4893 38.2606 75.356 36.8742 78.7729L28.6368 74.017C29.4365 71.7724 29.9533 69.4321 30.01 67.0292C30.0933 63.0177 29.6632 58.958 29.2331 54.8983C29.0469 53.1895 28.8607 51.4808 28.7181 49.7747C28.1496 43.064 29.5664 36.0788 33.209 29.7696C42.7012 13.3287 63.7252 7.69531 80.1661 17.1875C96.6071 26.6797 102.24 47.7037 92.7482 64.1446C89.1057 70.4538 83.7647 75.1734 77.6421 78.0435C76.0933 78.7731 74.5204 79.4662 72.9475 80.1593C69.2263 81.7998 65.4955 83.4572 62.0533 85.5519C60.0007 86.8025 58.2323 88.4202 56.6883 90.2351L48.4847 85.4988C50.7507 82.5897 53.5905 79.7412 57.1953 77.56C61.1815 75.1479 65.8567 73.0659 69.7672 71.3318C71.1871 70.7083 72.5004 70.1133 73.6438 69.5782L73.6536 69.5613ZM67.6661 38.8381C63.1837 36.2502 57.4475 37.7873 54.8596 42.2696C54.0002 43.7581 52.0793 44.2728 50.5908 43.4135C49.1023 42.5541 48.5876 40.6331 49.447 39.1446C53.7634 31.6684 63.3149 29.1091 70.7911 33.4255C72.2796 34.2849 72.7943 36.2058 71.9349 37.6943C71.0756 39.1828 69.1546 39.6975 67.6661 38.8381ZM30.1661 103.79C22.6899 99.4736 20.1306 89.9221 24.447 82.4459L26.0095 79.7396L53.0728 95.3646L51.5103 98.0709C47.1938 105.547 37.6423 108.106 30.1661 103.79Z" fill="white" fill-opacity="0.4"/>
</g>
<defs>
<clipPath id="clip0_419_6">
<rect width="75" height="100" fill="white" transform="translate(50.3965) rotate(30)"/>
</clipPath>
</defs>
</svg>
